<svg xmlns="http://www.w3.org/2000/svg" xmlns:xlink="http://www.w3.org/1999/xlink" width="44" height="44"
    viewBox="0 0 44 44">
    <defs>
        <style>
            .a {
                fill: #fff;
            }

            .b {
                fill: #1d85bf;
            }

            .c {
                filter: url(#a);
            }
        </style>
        <filter id="a" x="0" y="0" width="44" height="44" filterUnits="userSpaceOnUse">
            <feOffset dx="1" dy="3" input="SourceAlpha" />
            <feGaussianBlur stdDeviation="1" result="b" />
            <feFlood flood-opacity="0.161" />
            <feComposite operator="in" in2="b" />
            <feComposite in="SourceGraphic" />
        </filter>
    </defs>
    <g transform="translate(-1286 -9.207)">
        <g class="c" transform="matrix(1, 0, 0, 1, 1286, 9.21)">
            <circle class="a" cx="19" cy="19" r="19" transform="translate(2)" />
        </g>
        <g transform="translate(1298.563 19.488)">
            <g transform="translate(3.518)">
                <path class="b" d="M115.65,0a4.859,4.859,0,1,0,4.859,4.859A4.872,4.872,0,0,0,115.65,0Z"
                    transform="translate(-110.791)" />
            </g>
            <g transform="translate(0 10.065)">
                <g transform="translate(0)">
                    <path class="b"
                        d="M40.88,251.376a4.53,4.53,0,0,0-.488-.891,6.039,6.039,0,0,0-4.18-2.631A.894.894,0,0,0,35.6,248a5.179,5.179,0,0,1-6.111,0,.8.8,0,0,0-.615-.148,6,6,0,0,0-4.18,2.631,5.222,5.222,0,0,0-.488.891.451.451,0,0,0,.021.4,8.465,8.465,0,0,0,.573.849,8.065,8.065,0,0,0,.976,1.1,12.721,12.721,0,0,0,.976.849,9.676,9.676,0,0,0,11.542,0,9.332,9.332,0,0,0,.976-.849,9.8,9.8,0,0,0,.976-1.1,7.441,7.441,0,0,0,.573-.849A.362.362,0,0,0,40.88,251.376Z"
                        transform="translate(-24.165 -247.841)" />
                </g>
            </g>
        </g>
    </g>
</svg>