<svg xmlns="http://www.w3.org/2000/svg" xmlns:xlink="http://www.w3.org/1999/xlink" width="44" height="44" viewBox="0 0 44 44"><defs><style>.a{fill:#f0f4fb;}.b{fill:#3b49d5;}.c{filter:url(#a);}</style><filter id="a" x="0" y="0" width="44" height="44" filterUnits="userSpaceOnUse"><feOffset dx="1" dy="3" input="SourceAlpha"/><feGaussianBlur stdDeviation="1" result="b"/><feFlood flood-opacity="0.161"/><feComposite operator="in" in2="b"/><feComposite in="SourceGraphic"/></filter></defs><g transform="translate(-1299 -18)"><g transform="translate(1301 18)"><g class="c" transform="matrix(1, 0, 0, 1, -2, 0)"><circle class="a" cx="19" cy="19" r="19" transform="translate(2)"/></g></g><g transform="translate(1311.857 28.857)"><rect class="b" width="0.905" height="0.905" transform="translate(7.955 8.136)"/><rect class="b" width="0.905" height="0.905" transform="translate(9.764 8.136)"/><path class="b" d="M355.721,196.688l-.742.742.679.679h-3.194v1.05h3.194l-.679.679.742.742,1.945-1.945Z" transform="translate(-340.919 -190.237)"/><path class="b" d="M9.385,0H.464V15.609l3.6,1.079a2.118,2.118,0,0,0,.609.09,2.059,2.059,0,0,0,1.791-1.035H9.385a1.574,1.574,0,0,0,1.574-1.574V11.545H9.91v2.624a.525.525,0,0,1-.525.525H6.762v-11a2.089,2.089,0,0,0-1.32-1.949L3.714,1.05H9.385a.525.525,0,0,1,.525.525V5.248h1.05V1.574A1.574,1.574,0,0,0,9.385,0ZM5.052,2.716a1.043,1.043,0,0,1,.66.974V14.677a1.05,1.05,0,0,1-1.351,1.006l-2.847-.854V1.3Z" transform="translate(-0.464)"/></g></g></svg>